<svg width="202" height="275" viewBox="0 0 202 275" fill="none" xmlns="http://www.w3.org/2000/svg">
<path fill-rule="evenodd" clip-rule="evenodd" d="M67.4749 13.1328L81.7829 0.520378L80.1636 7.23455C78.9334 12.3352 79.7103 17.7136 82.3337 22.2577L116.948 82.2129L116.828 82.2823L156.422 150.862L156.44 150.852L188.189 202.99C189.479 205.222 190.045 207.763 189.775 210.101C189.504 212.44 186.731 215.601 186.731 215.601L132.961 264.388L122.155 274.615L123.362 265.707C123.97 261.218 123.072 256.655 120.807 252.733L85.6009 191.752L85.5834 191.762L44.7109 120.969L44.9232 120.846L17.9228 69.2345C16.6333 67.0023 16.067 64.4621 16.3373 62.1234C16.6076 59.7846 17.6949 57.8199 19.3807 56.6233L67.4749 13.1328ZM102.217 73.0193L95.1314 77.1102L100.24 85.9594L107.326 81.8685L102.217 73.0193ZM52.6172 101.656L45.5315 105.747L50.6406 114.596L57.7263 110.505L52.6172 101.656ZM91.9989 55.3209L84.9132 59.4118L90.0223 68.261L97.108 64.1701L91.9989 55.3209ZM42.399 83.9574L35.3133 88.0483L40.4224 96.8975L47.5081 92.8066L42.399 83.9574ZM81.7807 37.6225L74.695 41.7134L79.8041 50.5626L86.8898 46.4717L81.7807 37.6225ZM32.1808 66.259L25.0951 70.3499L30.2042 79.1991L37.2899 75.1082L32.1808 66.259ZM71.5625 19.9241L64.4768 24.015L69.5859 32.8642L76.6716 28.7733L71.5625 19.9241ZM88.9559 16.7218C87.4027 14.1638 86.5068 11.1345 87.7896 8.43081C88.4189 7.10458 89.2463 5.87556 90.1552 5.18125C92.1362 3.66805 94.8515 2.74114 97.7567 2.58637L98.6227 2.56592L189.581 2.58636C192.494 2.5857 195.3 3.36512 197.437 4.76834C199.573 6.17157 200.881 8.0949 201.1 10.1528L201.129 10.7663L201.129 76.2055C201.13 78.2692 200.029 80.2569 198.048 81.7701C196.067 83.2833 193.352 84.2102 190.447 84.365L189.581 84.3854L129.048 84.365L108.931 49.6208L88.9559 16.7218ZM178.033 10.7663L178.033 18.9462L189.581 18.9462L189.581 10.7663L178.033 10.7663ZM178.033 68.0256L178.033 76.2055L189.581 76.2055L189.581 68.0256L178.033 68.0256ZM154.937 10.7663L154.937 18.9462L166.485 18.9462L166.485 10.7663L154.937 10.7663ZM154.937 68.0256L154.937 76.2055L166.485 76.2055L166.485 68.0256L154.937 68.0256ZM131.841 10.7663L131.841 18.9462L143.389 18.9462L143.389 10.7663L131.841 10.7663ZM131.841 68.0256L131.841 76.2055L143.389 76.2055L143.389 68.0256L131.841 68.0256ZM108.746 10.7663L108.746 18.9462L120.293 18.9462L120.293 10.7663L108.746 10.7663ZM114.01 266.705C115.293 264.002 114.397 260.972 112.844 258.414L92.8688 225.515L72.7526 190.771L12.2192 190.751L11.3531 190.771C8.44794 190.926 5.73271 191.853 3.75172 193.366C1.77073 194.879 0.670418 196.867 0.671341 198.931L0.671341 264.37L0.700202 264.983C0.918708 267.041 2.22725 268.965 4.36351 270.368C6.49976 271.771 9.30583 272.55 12.2192 272.55L103.177 272.57L104.043 272.55C106.949 272.395 109.664 271.468 111.645 269.955C112.554 269.261 113.381 268.032 114.01 266.705ZM23.7671 256.19L23.7671 264.37L12.2192 264.37L12.2192 256.19L23.7671 256.19ZM23.7671 198.931L23.7671 207.111L12.2192 207.111L12.2192 198.931L23.7671 198.931ZM46.8629 256.19L46.8629 264.37L35.315 264.37L35.315 256.19L46.8629 256.19ZM46.8629 198.931L46.8629 207.111L35.315 207.111L35.315 198.931L46.8629 198.931ZM69.9587 256.19L69.9587 264.37L58.4108 264.37L58.4108 256.19L69.9587 256.19ZM69.9587 198.931L69.9587 207.111L58.4108 207.111L58.4108 198.931L69.9587 198.931ZM93.0545 256.19L93.0545 264.37L81.5066 264.37L81.5066 256.19L93.0545 256.19ZM100.331 200.944L107.417 196.853L102.308 188.004L95.222 192.095L100.331 200.944ZM149.931 172.308L157.017 168.217L151.908 159.368L144.822 163.459L149.931 172.308ZM110.549 218.642L117.635 214.551L112.526 205.702L105.44 209.793L110.549 218.642ZM160.149 190.006L167.235 185.915L162.126 177.066L155.04 181.157L160.149 190.006ZM120.767 236.341L127.853 232.25L122.744 223.401L115.658 227.492L120.767 236.341ZM170.367 207.704L177.453 203.613L172.344 194.764L165.258 198.855L170.367 207.704ZM130.985 254.039L138.071 249.948L132.962 241.099L125.876 245.19L130.985 254.039ZM134.606 145.76L141.692 141.669L146.801 150.518L139.715 154.609L134.606 145.76ZM85.0062 174.397L92.0919 170.306L97.201 179.155L90.1153 183.246L85.0062 174.397ZM124.388 128.062L131.474 123.971L136.583 132.82L129.497 136.911L124.388 128.062ZM74.788 156.698L81.8737 152.607L86.9828 161.456L79.8971 165.547L74.788 156.698ZM114.17 110.363L121.255 106.272L126.365 115.122L119.279 119.212L114.17 110.363ZM64.5698 139L71.6555 134.909L76.7646 143.758L69.6789 147.849L64.5698 139ZM103.952 92.6648L111.037 88.5739L116.146 97.4231L109.061 101.514L103.952 92.6648ZM54.3517 121.301L61.4374 117.21L66.5465 126.06L59.4608 130.151L54.3517 121.301Z" fill="white" fill-opacity="0.3"/>
</svg>
