<svg width="150" height="157" viewBox="0 0 150 157" fill="none" xmlns="http://www.w3.org/2000/svg">
<g filter="url(#filter0_d_47_110)">
<path fill-rule="evenodd" clip-rule="evenodd" d="M66.4711 40.544L69.9685 37.3543L69.5588 39.1119C69.2668 40.3647 69.448 41.6775 70.0658 42.7847L78.5643 58.0143L78.5349 58.0318L88.2134 75.3756L88.2177 75.373L95.9786 88.5588C96.2938 89.1234 96.4322 89.7658 96.3662 90.3572C96.3001 90.9487 95.6222 91.7482 95.6222 91.7482L82.4786 104.086L79.8372 106.673L80.1397 104.363C80.2837 103.264 80.0732 102.152 79.5406 101.198L70.9019 85.7166L70.8976 85.7192L60.9067 67.8156L60.9586 67.7846L54.3585 54.7321C54.0433 54.1675 53.9049 53.5251 53.971 52.9337C54.0371 52.3422 54.3028 51.8453 54.7149 51.5427L66.4711 40.544ZM74.9635 55.6892L73.2314 56.7238L74.4803 58.9618L76.2123 57.9272L74.9635 55.6892ZM62.8393 62.9314L61.1072 63.966L62.3561 66.204L64.0881 65.1694L62.8393 62.9314ZM72.4657 51.2133L70.7337 52.2479L71.9826 54.4859L73.7146 53.4513L72.4657 51.2133ZM60.3415 58.4555L58.6095 59.4901L59.8584 61.728L61.5904 60.6934L60.3415 58.4555ZM69.968 46.7374L68.236 47.772L69.4848 50.01L71.2169 48.9754L69.968 46.7374ZM57.8438 53.9796L56.1117 55.0142L57.3606 57.2521L59.0926 56.2175L57.8438 53.9796ZM67.4703 42.2615L65.7382 43.2961L66.9871 45.534L68.7191 44.4994L67.4703 42.2615ZM71.6913 41.3994C71.3313 40.786 71.1243 40.0683 71.4092 39.4167C71.566 39.058 71.7793 38.7194 72.0151 38.533C72.4993 38.1503 73.1631 37.9159 73.8732 37.8768L74.0849 37.8716L96.3188 37.8768C97.0309 37.8766 97.7168 38.0737 98.239 38.4286C98.7612 38.7835 99.0811 39.2699 99.1345 39.7903L99.1415 39.9455L99.1415 56.495C99.1418 57.017 98.8728 57.5196 98.3886 57.9023C97.9043 58.285 97.2406 58.5194 96.5305 58.5586L96.3188 58.5637L81.522 58.5586L76.6047 49.7718L71.6913 41.3994ZM93.496 39.9455L93.496 42.0142L96.3188 42.0142L96.3188 39.9455L93.496 39.9455ZM93.496 54.4263L93.496 56.495L96.3188 56.495L96.3188 54.4264L93.496 54.4263ZM87.8504 39.9455L87.8504 42.0142L90.6732 42.0142L90.6732 39.9455L87.8504 39.9455ZM87.8504 54.4264L87.8504 56.495L90.6732 56.495L90.6732 54.4264L87.8504 54.4264ZM82.2049 39.9455L82.2049 42.0142L85.0277 42.0142L85.0277 39.9455L82.2049 39.9455ZM82.2049 54.4263L82.2049 56.495L85.0277 56.495L85.0277 54.4263L82.2049 54.4263ZM76.5593 39.9455L76.5593 42.0142L79.3821 42.0142L79.3821 39.9455L76.5593 39.9455ZM77.8738 104.611C78.1587 103.959 77.9516 103.241 77.5917 102.628L72.6782 94.2554L67.761 85.4687L52.9642 85.4635L52.7525 85.4687C52.0423 85.5078 51.3786 85.7422 50.8944 86.1249C50.4101 86.5076 50.1412 87.0103 50.1414 87.5322L50.1414 104.082L50.1484 104.237C50.2019 104.757 50.5217 105.244 51.0439 105.599C51.5661 105.953 52.252 106.151 52.9642 106.15L75.198 106.156L75.4097 106.15C76.1199 106.111 76.7836 105.877 77.2678 105.494C77.5036 105.308 77.7169 104.969 77.8738 104.611ZM55.7869 102.013L55.7869 104.082L52.9642 104.082L52.9642 102.013L55.7869 102.013ZM55.7869 87.5322L55.7869 89.6009L52.9642 89.6009L52.9642 87.5322L55.7869 87.5322ZM61.4325 102.013L61.4325 104.082L58.6097 104.082L58.6097 102.013L61.4325 102.013ZM61.4325 87.5322L61.4325 89.6009L58.6097 89.6009L58.6097 87.5322L61.4325 87.5322ZM67.078 102.013L67.078 104.082L64.2553 104.082L64.2553 102.013L67.078 102.013ZM67.078 87.5322L67.078 89.6009L64.2553 89.6009L64.2553 87.5322L67.078 87.5322ZM72.7236 102.013L72.7236 104.082L69.9008 104.082L69.9008 102.013L72.7236 102.013ZM74.5025 88.0414L76.2345 87.0068L74.9857 84.7689L73.2536 85.8035L74.5025 88.0414ZM86.6267 80.7992L88.3588 79.7646L87.1099 77.5267L85.3779 78.5613L86.6267 80.7992ZM77.0002 92.5173L78.7322 91.4827L77.4834 89.2447L75.7514 90.2793L77.0002 92.5173ZM89.1244 85.2751L90.8565 84.2405L89.6076 82.0026L87.8756 83.0372L89.1244 85.2751ZM79.4979 96.9931L81.23 95.9585L79.9811 93.7206L78.2491 94.7552L79.4979 96.9931ZM91.6222 89.751L93.3542 88.7164L92.1053 86.4784L90.3733 87.513L91.6222 89.751ZM81.9956 101.469L83.7277 100.434L82.4788 98.1965L80.7468 99.2311L81.9956 101.469ZM82.8807 74.0854L84.6128 73.0508L85.8616 75.2887L84.1296 76.3233L82.8807 74.0854ZM70.7565 81.3275L72.4886 80.2929L73.7374 82.5309L72.0054 83.5655L70.7565 81.3275ZM80.383 69.6094L82.115 68.5748L83.3639 70.8128L81.6319 71.8474L80.383 69.6094ZM68.2588 76.8516L69.9908 75.817L71.2397 78.055L69.5077 79.0896L68.2588 76.8516ZM77.8853 65.1335L79.6173 64.0989L80.8662 66.3369L79.1341 67.3715L77.8853 65.1335ZM65.761 72.3757L67.4931 71.3411L68.7419 73.579L67.0099 74.6136L65.761 72.3757ZM75.3875 60.6576L77.1196 59.623L78.3684 61.861L76.6364 62.8956L75.3875 60.6576ZM63.2633 67.8998L64.9953 66.8652L66.2442 69.1031L64.5122 70.1377L63.2633 67.8998Z" fill="white"/>
</g>
<defs>
<filter id="filter0_d_47_110" x="0.141602" y="-12.6457" width="149" height="169.318" filterUnits="userSpaceOnUse" color-interpolation-filters="sRGB">
<feFlood flood-opacity="0" result="BackgroundImageFix"/>
<feColorMatrix in="SourceAlpha" type="matrix" values="0 0 0 0 0 0 0 0 0 0 0 0 0 0 0 0 0 0 127 0" result="hardAlpha"/>
<feOffset/>
<feGaussianBlur stdDeviation="25"/>
<feComposite in2="hardAlpha" operator="out"/>
<feColorMatrix type="matrix" values="0 0 0 0 0.329222 0 0 0 0 1 0 0 0 0 0.798767 0 0 0 0.5 0"/>
<feBlend mode="normal" in2="BackgroundImageFix" result="effect1_dropShadow_47_110"/>
<feBlend mode="normal" in="SourceGraphic" in2="effect1_dropShadow_47_110" result="shape"/>
</filter>
</defs>
</svg>
