<svg width="50" height="68" viewBox="0 0 50 68" fill="none" xmlns="http://www.w3.org/2000/svg">
<path fill-rule="evenodd" clip-rule="evenodd" d="M16.4712 3.1878L19.9686 0.104811L19.5728 1.74602C19.2721 2.99284 19.462 4.30754 20.1032 5.41828L28.5643 20.0738L28.535 20.0907L38.2135 36.8543L38.2178 36.8519L45.9787 49.5966C46.2939 50.1423 46.4323 50.7632 46.3662 51.3349C46.3001 51.9066 45.6223 52.6793 45.6223 52.6793L32.4787 64.6048L29.8372 67.1047L30.1323 64.9271C30.281 63.8299 30.0613 62.7145 29.5078 61.7557L20.9019 46.8495L20.8977 46.852L10.9068 29.5472L10.9586 29.5173L4.35861 16.9013C4.04339 16.3557 3.90497 15.7348 3.97105 15.1631C4.03713 14.5914 4.3029 14.1111 4.71499 13.8186L16.4712 3.1878ZM24.9635 17.8265L23.2315 18.8265L24.4804 20.9896L26.2124 19.9896L24.9635 17.8265ZM12.8393 24.8264L11.1073 25.8264L12.3562 27.9895L14.0882 26.9895L12.8393 24.8264ZM22.4658 13.5003L20.7338 14.5003L21.9826 16.6634L23.7147 15.6634L22.4658 13.5003ZM10.3416 20.5002L8.60955 21.5002L9.85841 23.6633L11.5904 22.6633L10.3416 20.5002ZM19.9681 9.17406L18.236 10.1741L19.4849 12.3372L21.2169 11.3372L19.9681 9.17406ZM7.84384 16.174L6.11181 17.174L7.36068 19.3371L9.09271 18.3371L7.84384 16.174ZM17.4703 4.84785L15.7383 5.84784L16.9872 8.01095L18.7192 7.01096L17.4703 4.84785ZM21.722 4.0651C21.3423 3.43982 21.1234 2.69933 21.4369 2.03844C21.5907 1.71426 21.793 1.41384 22.0152 1.24412C22.4994 0.874229 23.1631 0.647658 23.8733 0.609825L24.085 0.604827L46.3188 0.609825C47.031 0.609666 47.7169 0.800184 48.2391 1.14319C48.7613 1.48619 49.0811 1.95633 49.1345 2.45936L49.1416 2.60932L49.1416 18.6053C49.1418 19.1098 48.8729 19.5956 48.3886 19.9655C47.9044 20.3354 47.2407 20.562 46.5305 20.5998L46.3188 20.6048L31.522 20.5998L26.6048 12.107L21.722 4.0651ZM43.4961 2.60932L43.4961 4.60882L46.3188 4.60882L46.3188 2.60932L43.4961 2.60932ZM43.4961 16.6058L43.4961 18.6053L46.3188 18.6053L46.3188 16.6058L43.4961 16.6058ZM37.8505 2.60932L37.8505 4.60882L40.6733 4.60882L40.6733 2.60933L37.8505 2.60932ZM37.8505 16.6058L37.8505 18.6053L40.6733 18.6053L40.6733 16.6058L37.8505 16.6058ZM32.205 2.60933L32.205 4.60882L35.0277 4.60883L35.0277 2.60932L32.205 2.60933ZM32.205 16.6058L32.205 18.6053L35.0277 18.6053L35.0277 16.6058L32.205 16.6058ZM26.5594 2.60932L26.5594 4.60883L29.3822 4.60882L29.3822 2.60932L26.5594 2.60932ZM27.8461 65.1712C28.1597 64.5103 27.9407 63.7698 27.5611 63.1445L22.6783 55.1027L17.761 46.6098L2.96423 46.6048L2.75252 46.6098C2.04238 46.6476 1.37866 46.8742 0.894427 47.2441C0.410194 47.614 0.141233 48.0999 0.14146 48.6043L0.141459 64.6003L0.148515 64.7503C0.201926 65.2533 0.521787 65.7234 1.04397 66.0665C1.56616 66.4095 2.25208 66.6 2.96423 66.5998L25.1981 66.6048L25.4098 66.5998C26.1199 66.562 26.7836 66.3354 27.2679 65.9655C27.4901 65.7958 27.6923 65.4954 27.8461 65.1712ZM5.78701 62.6008L5.78701 64.6003L2.96423 64.6003L2.96423 62.6008L5.78701 62.6008ZM5.78701 48.6043L5.78701 50.6038L2.96423 50.6038L2.96423 48.6043L5.78701 48.6043ZM11.4326 62.6008L11.4326 64.6003L8.60978 64.6003L8.60978 62.6008L11.4326 62.6008ZM11.4326 48.6043L11.4326 50.6038L8.60978 50.6038L8.60978 48.6043L11.4326 48.6043ZM17.0781 62.6008L17.0781 64.6003L14.2553 64.6003L14.2553 62.6008L17.0781 62.6008ZM17.0781 48.6043L17.0781 50.6038L14.2553 50.6038L14.2553 48.6043L17.0781 48.6043ZM22.7237 62.6008L22.7237 64.6003L19.9009 64.6003L19.9009 62.6008L22.7237 62.6008ZM24.5026 49.0965L26.2346 48.0965L24.9857 45.9334L23.2537 46.9334L24.5026 49.0965ZM36.6268 42.0966L38.3588 41.0966L37.11 38.9335L35.3779 39.9335L36.6268 42.0966ZM27.0003 53.4227L28.7323 52.4227L27.4835 50.2596L25.7514 51.2596L27.0003 53.4227ZM39.1245 46.4227L40.8565 45.4228L39.6077 43.2597L37.8756 44.2597L39.1245 46.4227ZM29.498 57.7488L31.23 56.7488L29.9812 54.5858L28.2491 55.5857L29.498 57.7488ZM41.6222 50.7489L43.3542 49.7489L42.1054 47.5858L40.3734 48.5858L41.6222 50.7489ZM31.9957 62.075L33.7277 61.075L32.4789 58.9119L30.7469 59.9119L31.9957 62.075ZM32.8808 35.6073L34.6128 34.6073L35.8617 36.7704L34.1297 37.7704L32.8808 35.6073ZM20.7566 42.6072L22.4886 41.6072L23.7375 43.7703L22.0055 44.7703L20.7566 42.6072ZM30.3831 31.2811L32.1151 30.2811L33.364 32.4442L31.6319 33.4442L30.3831 31.2811ZM18.2588 38.281L19.9909 37.281L21.2397 39.4441L19.5077 40.4441L18.2588 38.281ZM27.8853 26.9549L29.6174 25.9549L30.8662 28.118L29.1342 29.118L27.8853 26.9549ZM15.7611 33.9548L17.4931 32.9548L18.742 35.1179L17.01 36.1179L15.7611 33.9548ZM25.3876 22.6287L27.1196 21.6287L28.3685 23.7918L26.6365 24.7918L25.3876 22.6287ZM13.2634 29.6286L14.9954 28.6286L16.2443 30.7917L14.5122 31.7917L13.2634 29.6286Z" fill="white"/>
</svg>
